<svg width="14" height="14" viewBox="0 0 14 14" fill="none" xmlns="http://www.w3.org/2000/svg">
<path d="M7.87709 9.38013C9.06151 8.34525 8.97549 7.45439 8.97549 6.99912C8.90315 4.47462 8.50363 4.23558 7.00002 4.23558C5.53211 4.23558 5.09688 4.47462 5.02518 6.99912C5.02518 7.45439 4.93852 8.34525 6.1234 9.38013C6.36548 9.60992 7.18031 9.34898 6.51053 8.66162C5.68698 7.81658 5.8581 7.77031 7.00002 7.71314C8.14102 7.742 8.28129 7.81658 7.49024 8.66162C6.8367 9.35915 7.63501 9.60992 7.87709 9.38013ZM12.2006 2.68357C12.2006 2.68357 13.8478 7.26299 12.908 8.57531C11.838 10.0699 8.79318 13.4611 7.00002 13.5186C5.20713 13.4611 2.16207 10.0699 1.09203 8.57531C0.152261 7.26299 1.79946 2.68357 1.79946 2.68357C0.49514 1.90743 1.1473 1.18892 1.79946 0.758109C3.28517 -0.161605 4.15518 1.50539 4.15518 1.50539C4.77144 1.21778 6.43782 1.21778 7.00002 1.21778C7.56285 1.21778 9.22932 1.21778 9.84504 1.50539C9.84504 1.50539 10.7149 -0.161605 12.2006 0.758109C12.8527 1.18892 13.5056 1.90743 12.2006 2.68357Z" fill="#1B2230"/>
</svg>
