<svg width="13" height="14" viewBox="0 0 13 14" fill="none" xmlns="http://www.w3.org/2000/svg">
<path d="M7.31443 9.2102C8.41426 8.24924 8.33438 7.42202 8.33438 6.99926C8.26721 4.65509 7.89623 4.43312 6.50001 4.43312C5.13695 4.43312 4.73281 4.65509 4.66623 6.99926C4.66623 7.42202 4.58576 8.24924 5.68601 9.2102C5.9108 9.42358 6.66743 9.18128 6.04549 8.54302C5.28076 7.75833 5.43966 7.71537 6.50001 7.66228C7.55951 7.68908 7.68976 7.75833 6.95521 8.54302C6.34836 9.19072 7.08964 9.42358 7.31443 9.2102ZM11.3291 2.99197C11.3291 2.99197 12.8586 7.24429 11.986 8.46287C10.9924 9.85068 8.16509 12.9997 6.50001 13.053C4.83519 12.9997 2.00763 9.85068 1.01403 8.46287C0.141381 7.24429 1.67092 2.99197 1.67092 2.99197C0.459768 2.27127 1.06534 1.60408 1.67092 1.20404C3.05051 0.350017 3.85837 1.89794 3.85837 1.89794C4.43062 1.63088 5.97797 1.63088 6.50001 1.63088C7.02264 1.63088 8.57008 1.63088 9.14182 1.89794C9.14182 1.89794 9.94951 0.350017 11.3291 1.20404C11.9347 1.60408 12.5409 2.27127 11.3291 2.99197Z" fill="#FF342A"/>
</svg>
