<svg width="20" height="20" viewBox="0 0 20 20" fill="none" xmlns="http://www.w3.org/2000/svg">
<path fill-rule="evenodd" clip-rule="evenodd" d="M3.2703 8.39626C0.970198 6.44901 -1.98608 2.41032 7.58684 0C0.106037 4.64553 4.74362 5.86211 6.40366 6.42013C6.57067 6.25397 6.65687 5.91876 7.04126 5.87398C7.9502 5.79426 8.9198 5.76873 9.97873 5.76761C11.0372 5.76873 12.007 5.79426 12.916 5.87398C13.3006 5.91876 13.3866 6.25397 13.5536 6.42013C15.2136 5.86211 19.8512 4.64553 12.3704 0C21.9433 2.41032 18.987 6.44901 16.6869 8.39626C17.2189 8.47217 19.0269 9.02817 19.1406 9.1464C18.8205 9.56693 17.3118 10.225 16.7304 10.225C16.2833 10.225 15.6495 10.0495 15.1565 9.90058C15.2228 10.067 15.2705 10.1798 15.3632 10.3948C14.4251 11.5451 13.8191 13.1114 13.5641 14.8108C13.5144 15.142 13.4754 15.3106 13.5744 15.5652C13.6584 15.7815 13.8325 16.0518 13.9745 16.2011C14.1627 16.4022 14.0754 16.8583 14.0432 16.9537C13.8021 17.6649 13.7739 17.7431 13.5444 18.1567C13.4251 18.3718 13.331 18.5044 13.2724 18.5279C12.929 18.6638 12.5079 18.6553 12.2508 18.8958C11.9784 19.1507 12.1279 19.3123 11.8841 19.5582C11.4742 19.9718 10.6795 19.9922 9.97873 19.9998C9.27778 19.9922 8.48302 19.9718 8.0731 19.5582C7.8293 19.3123 7.97885 19.1507 7.70639 18.8958C7.44916 18.6553 7.02827 18.6638 6.68485 18.5279C6.62597 18.5044 6.53217 18.3718 6.41284 18.1567C6.18337 17.7431 6.15516 17.6649 5.91405 16.9537C5.88181 16.8583 5.7945 16.4022 5.98277 16.2011C6.12471 16.0518 6.29889 15.7815 6.38284 15.5652C6.48179 15.3106 6.44262 15.142 6.39292 14.8108C6.13814 13.1114 5.53211 11.5451 4.59385 10.3948C4.68698 10.1798 4.73444 10.067 4.80071 9.90058C4.30774 10.0495 3.67394 10.225 3.22709 10.225C2.64524 10.225 1.13676 9.56693 0.816618 9.1464C0.930571 9.02817 2.73837 8.47217 3.2703 8.39626Z" fill="white"/>
</svg>
