<svg width="14" height="14" viewBox="0 0 14 14" fill="none" xmlns="http://www.w3.org/2000/svg">
<path fill-rule="evenodd" clip-rule="evenodd" d="M11.7109 5.8775C13.321 4.51443 15.3904 1.68735 8.68936 0.00012207C13.9259 3.25199 10.6796 4.1036 9.51759 4.49421C9.40068 4.3779 9.34035 4.14325 9.07127 4.11191C8.43502 4.0561 7.75629 4.03823 7.01504 4.03745C6.2741 4.03823 5.59522 4.0561 4.95896 4.11191C4.68973 4.14325 4.62955 4.3779 4.51265 4.49421C3.35062 4.1036 0.104308 3.25199 5.34087 0.00012207C-1.36018 1.68735 0.70922 4.51443 2.31929 5.8775C1.94694 5.93064 0.681325 6.31984 0.601715 6.4026C0.825815 6.69697 1.8819 7.15765 2.28889 7.15765C2.60184 7.15765 3.0455 7.03476 3.39058 6.93053C3.34419 7.04699 3.31081 7.12599 3.24593 7.27647C3.90256 8.08168 4.32678 9.17812 4.50528 10.3677C4.54007 10.5995 4.56734 10.7175 4.49807 10.8958C4.4393 11.0472 4.31738 11.2364 4.21802 11.3409C4.08623 11.4817 4.14735 11.801 4.16991 11.8677C4.33869 12.3656 4.35844 12.4203 4.51907 12.7098C4.6026 12.8604 4.66842 12.9532 4.70948 12.9697C4.94987 13.0648 5.24465 13.0589 5.42456 13.2272C5.61528 13.4056 5.51059 13.5188 5.68125 13.6909C5.9682 13.9804 6.52453 13.9946 7.01504 14C7.50571 13.9946 8.06204 13.9804 8.34898 13.6909C8.51964 13.5188 8.41496 13.4056 8.60568 13.2272C8.78574 13.0589 9.08036 13.0648 9.32076 12.9697C9.36197 12.9532 9.42764 12.8604 9.51116 12.7098C9.67179 12.4203 9.69154 12.3656 9.86032 11.8677C9.88289 11.801 9.94401 11.4817 9.81221 11.3409C9.71285 11.2364 9.59093 11.0472 9.53216 10.8958C9.4629 10.7175 9.49032 10.5995 9.52511 10.3677C9.70345 9.17812 10.1277 8.08168 10.7845 7.27647C10.7193 7.12599 10.686 7.04699 10.6397 6.93053C10.9847 7.03476 11.4284 7.15765 11.7412 7.15765C12.1485 7.15765 13.2044 6.69697 13.4285 6.4026C13.3488 6.31984 12.0833 5.93064 11.7109 5.8775Z" fill="#1B2230"/>
</svg>
