<svg width="17" height="16" viewBox="0 0 17 16" fill="none" xmlns="http://www.w3.org/2000/svg">
<path fill-rule="evenodd" clip-rule="evenodd" d="M11.8333 10C11.0753 10.0038 10.3599 10.3514 9.88834 10.945L6.23334 8.66C6.36655 8.23009 6.36655 7.76992 6.23334 7.34L9.88834 5.055C10.6543 6.00348 11.9927 6.26113 13.0561 5.66482C14.1195 5.0685 14.5976 3.79213 14.1878 2.64392C13.778 1.49571 12.5997 0.810543 11.3991 1.02227C10.1985 1.234 9.32568 2.28088 9.33334 3.5C9.3357 3.72359 9.36936 3.94575 9.43334 4.16L5.77834 6.445C5.11697 5.61242 4.00132 5.28928 2.99735 5.63951C1.99338 5.98974 1.3208 6.9367 1.3208 8C1.3208 9.06331 1.99338 10.0103 2.99735 10.3605C4.00132 10.7107 5.11697 10.3876 5.77834 9.555L9.43334 11.84C9.36936 12.0543 9.3357 12.2764 9.33334 12.5C9.33334 13.8807 10.4526 15 11.8333 15C13.2141 15 14.3333 13.8807 14.3333 12.5C14.3333 11.1193 13.2141 10 11.8333 10ZM11.8333 2C12.6618 2 13.3333 2.67158 13.3333 3.5C13.3333 4.32843 12.6618 5 11.8333 5C11.0049 5 10.3333 4.32843 10.3333 3.5C10.3333 2.67158 11.0049 2 11.8333 2ZM3.83334 9.5C3.00492 9.5 2.33334 8.82843 2.33334 8C2.33334 7.17158 3.00492 6.5 3.83334 6.5C4.66177 6.5 5.33334 7.17158 5.33334 8C5.33334 8.82843 4.66177 9.5 3.83334 9.5ZM11.8333 14C11.0049 14 10.3333 13.3284 10.3333 12.5C10.3333 11.6716 11.0049 11 11.8333 11C12.6618 11 13.3333 11.6716 13.3333 12.5C13.3333 13.3284 12.6618 14 11.8333 14Z" fill="#6A38EB"/>
</svg>
