<svg width="16" height="16" viewBox="0 0 16 16" fill="none" xmlns="http://www.w3.org/2000/svg">
<path d="M9.00245 10.7204C10.3561 9.53764 10.2578 8.51952 10.2578 7.9992C10.1751 5.11406 9.71851 4.84087 8.00009 4.84087C6.32248 4.84087 5.82507 5.11406 5.74313 7.9992C5.74313 8.51952 5.64409 9.53764 6.99824 10.7204C7.27491 10.983 8.20614 10.6848 7.44067 9.89921C6.49947 8.93345 6.69504 8.88057 8.00009 8.81523C9.30409 8.84821 9.4644 8.93345 8.56034 9.89921C7.81344 10.6964 8.72579 10.983 9.00245 10.7204ZM13.9436 3.06715C13.9436 3.06715 15.8261 8.30077 14.7521 9.80057C13.5292 11.5086 10.0494 15.3844 8.00009 15.45C5.95108 15.3844 2.47101 11.5086 1.24811 9.80057C0.174082 8.30077 2.05659 3.06715 2.05659 3.06715C0.565944 2.18013 1.31127 1.35898 2.05659 0.86662C3.75455 -0.184482 4.74884 1.72065 4.74884 1.72065C5.45314 1.39196 7.35758 1.39196 8.00009 1.39196C8.64333 1.39196 10.5479 1.39196 11.2515 1.72065C11.2515 1.72065 12.2456 -0.184482 13.9436 0.86662C14.6889 1.35898 15.4351 2.18013 13.9436 3.06715Z" fill="#FF342A"/>
</svg>
