<svg width="16" height="16" viewBox="0 0 16 16" fill="none" xmlns="http://www.w3.org/2000/svg">
<path fill-rule="evenodd" clip-rule="evenodd" d="M13.3838 6.717C15.2238 5.15921 17.5889 1.92825 9.93052 0C15.9152 3.71642 12.2051 4.68969 10.8771 5.1361C10.7435 5.00318 10.6745 4.73501 10.367 4.69918C9.63984 4.63541 8.86416 4.61498 8.01701 4.61409C7.17023 4.61498 6.39436 4.63541 5.66721 4.69918C5.35952 4.73501 5.29074 5.00318 5.15713 5.1361C3.8291 4.68969 0.119035 3.71642 6.10368 0C-1.55466 1.92825 0.810363 5.15921 2.65044 6.717C2.2249 6.77773 0.778483 7.22254 0.6875 7.31712C0.943614 7.65354 2.15057 8.18003 2.6157 8.18003C2.97336 8.18003 3.48039 8.03959 3.87477 7.92046C3.82176 8.05356 3.78361 8.14385 3.70946 8.31582C4.4599 9.23606 4.94472 10.4891 5.14872 11.8486C5.18848 12.1136 5.21964 12.2485 5.14048 12.4521C5.07332 12.6252 4.93398 12.8414 4.82043 12.9609C4.6698 13.1218 4.73965 13.4867 4.76544 13.563C4.95833 14.1319 4.9809 14.1945 5.16448 14.5253C5.25994 14.6975 5.33516 14.8035 5.38208 14.8223C5.65683 14.9311 5.99371 14.9243 6.19932 15.1167C6.41729 15.3205 6.29765 15.4499 6.49269 15.6466C6.82062 15.9774 7.45643 15.9937 8.01701 15.9998C8.57778 15.9937 9.21358 15.9774 9.54152 15.6466C9.73656 15.4499 9.61692 15.3205 9.83488 15.1167C10.0407 14.9243 10.3774 14.9311 10.6521 14.8223C10.6992 14.8035 10.7743 14.6975 10.8697 14.5253C11.0533 14.1945 11.0759 14.1319 11.2688 13.563C11.2946 13.4867 11.3644 13.1218 11.2138 12.9609C11.1002 12.8414 10.9609 12.6252 10.8937 12.4521C10.8146 12.2485 10.8459 12.1136 10.8857 11.8486C11.0895 10.4891 11.5743 9.23606 12.3249 8.31582C12.2504 8.14385 12.2124 8.05356 12.1594 7.92046C12.5538 8.03959 13.0608 8.18003 13.4183 8.18003C13.8838 8.18003 15.0906 7.65354 15.3467 7.31712C15.2555 7.22254 13.8093 6.77773 13.3838 6.717Z" fill="#28A946"/>
</svg>
