<svg width="14" height="14" viewBox="0 0 14 14" fill="none" xmlns="http://www.w3.org/2000/svg">
<path fill-rule="evenodd" clip-rule="evenodd" d="M0 7C0 10.866 3.13401 14 7 14C10.866 14 14 10.866 14 7C14 3.13401 10.866 0 7 0C3.13401 0 0 3.13401 0 7ZM4.52544 5.80503L7.00032 8.2799L9.47519 5.80503C9.74856 5.53166 10.1918 5.53166 10.4651 5.80503C10.7385 6.07839 10.7385 6.52161 10.4651 6.79497L7.49529 9.76482C7.35861 9.90151 7.17946 9.96985 7.00032 9.96985C6.82117 9.96985 6.64203 9.90151 6.50534 9.76482L3.53549 6.79497C3.26213 6.52161 3.26213 6.07839 3.53549 5.80503C3.80886 5.53166 4.25208 5.53166 4.52544 5.80503Z" fill="#FF342A"/>
</svg>
