<svg width="16" height="16" viewBox="0 0 16 16" fill="none" xmlns="http://www.w3.org/2000/svg">
<path fill-rule="evenodd" clip-rule="evenodd" d="M0 8C0 12.4183 3.58172 16 8 16C12.4183 16 16 12.4183 16 8C16 3.58172 12.4183 0 8 0C3.58172 0 0 3.58172 0 8ZM10.8288 10.1657L8.00036 7.33723L5.17194 10.1657C4.85952 10.4781 4.35298 10.4781 4.04056 10.1657C3.72815 9.85324 3.72815 9.34671 4.04056 9.03429L7.43468 5.64017C7.7471 5.32775 8.25363 5.32775 8.56605 5.64017L11.9602 9.03429C12.2726 9.34671 12.2726 9.85324 11.9602 10.1657C11.6477 10.4781 11.1412 10.4781 10.8288 10.1657Z" fill="#28A946"/>
</svg>
