<svg width="16" height="14" viewBox="0 0 16 14" fill="none" xmlns="http://www.w3.org/2000/svg">
<path d="M8.6666 7.66668V11.39L9.88526 10.1713L10.8286 11.1147L7.99993 13.9427L5.17126 11.1147L6.1146 10.1713L7.33326 11.39V7.66668H8.6666ZM7.99993 0.333344C9.14458 0.333398 10.2493 0.754086 11.1041 1.51542C11.9588 2.27676 12.504 3.32565 12.6359 4.46268C13.4654 4.68889 14.1891 5.19941 14.6804 5.90503C15.1717 6.61065 15.3994 7.46647 15.3237 8.32294C15.248 9.1794 14.8737 9.98203 14.2663 10.5906C13.6589 11.1991 12.8569 11.5748 12.0006 11.652V10.3093C12.3074 10.2655 12.6024 10.161 12.8683 10.002C13.1343 9.84294 13.3659 9.63249 13.5496 9.38295C13.7334 9.13341 13.8656 8.84976 13.9385 8.54857C14.0114 8.24738 14.0236 7.93468 13.9744 7.62872C13.9252 7.32277 13.8155 7.02968 13.6517 6.76658C13.488 6.50347 13.2735 6.27562 13.0207 6.09632C12.768 5.91702 12.482 5.78987 12.1796 5.72228C11.8772 5.6547 11.5643 5.64803 11.2593 5.70268C11.3637 5.2166 11.358 4.71332 11.2427 4.22971C11.1275 3.7461 10.9055 3.2944 10.593 2.9077C10.2805 2.52099 9.88553 2.20908 9.43691 1.99481C8.98829 1.78053 8.49743 1.66932 8.00026 1.66932C7.5031 1.66932 7.01223 1.78053 6.56361 1.99481C6.115 2.20908 5.71999 2.52099 5.40753 2.9077C5.09507 3.2944 4.87307 3.7461 4.75778 4.22971C4.6425 4.71332 4.63686 5.2166 4.74126 5.70268C4.13303 5.58846 3.50434 5.72053 2.99349 6.06985C2.48264 6.41917 2.13148 6.95711 2.01726 7.56534C1.90304 8.17357 2.03512 8.80227 2.38444 9.31311C2.73376 9.82396 3.2717 10.1751 3.87993 10.2893L3.99993 10.3093V11.652C3.14356 11.5749 2.34153 11.1993 1.73402 10.5908C1.1265 9.98233 0.752147 9.17972 0.676379 8.32323C0.60061 7.46674 0.828249 6.61087 1.31951 5.90519C1.81077 5.19952 2.5344 4.68893 3.36393 4.46268C3.49573 3.32559 4.04087 2.27662 4.89565 1.51525C5.75043 0.75389 6.85523 0.333252 7.99993 0.333344Z" fill="#788091"/>
</svg>
