<svg width="20" height="20" viewBox="0 0 20 20" fill="none" xmlns="http://www.w3.org/2000/svg">
<path d="M1.66669 14.9999H7.50002V16.6666H1.66669V14.9999ZM1.66669 9.16659H9.16669V10.8333H1.66669V9.16659ZM1.66669 3.33325H18.3334V4.99992H1.66669V3.33325ZM17.2284 10.8541L18.1917 10.5283L19.025 11.9716L18.2617 12.6424C18.3578 13.098 18.3578 13.5685 18.2617 14.0241L19.025 14.6949L18.1917 16.1383L17.2284 15.8124C16.8867 16.1208 16.48 16.3583 16.0325 16.5041L15.8334 17.4999H14.1667L13.9667 16.5033C13.5244 16.3587 13.1173 16.1231 12.7717 15.8116L11.8084 16.1383L10.975 14.6949L11.7384 14.0241C11.6423 13.5685 11.6423 13.098 11.7384 12.6424L10.975 11.9716L11.8084 10.5283L12.7717 10.8541C13.1134 10.5458 13.52 10.3083 13.9675 10.1624L14.1667 9.16659H15.8334L16.0334 10.1633C16.48 10.3083 16.8867 10.5466 17.2284 10.8549V10.8541ZM15 14.1666C15.221 14.1666 15.433 14.0788 15.5893 13.9225C15.7456 13.7662 15.8334 13.5543 15.8334 13.3333C15.8334 13.1122 15.7456 12.9003 15.5893 12.744C15.433 12.5877 15.221 12.4999 15 12.4999C14.779 12.4999 14.567 12.5877 14.4108 12.744C14.2545 12.9003 14.1667 13.1122 14.1667 13.3333C14.1667 13.5543 14.2545 13.7662 14.4108 13.9225C14.567 14.0788 14.779 14.1666 15 14.1666Z" fill="#1B2230"/>
</svg>
