<svg width="20" height="20" viewBox="0 0 20 20" fill="none" xmlns="http://www.w3.org/2000/svg">
<path d="M10.8333 10.8334V15.4876L12.3566 13.9642L13.5358 15.1434L9.99997 18.6784L6.46414 15.1434L7.64331 13.9642L9.16664 15.4876V10.8334H10.8333ZM9.99997 1.66675C11.4308 1.66682 12.8117 2.19268 13.8801 3.14435C14.9486 4.09602 15.63 5.40713 15.795 6.82842C16.8319 7.11118 17.7364 7.74934 18.3505 8.63136C18.9646 9.51338 19.2493 10.5832 19.1547 11.6537C19.06 12.7243 18.5922 13.7276 17.8329 14.4883C17.0737 15.2489 16.0712 15.7185 15.0008 15.8151V14.1367C15.3843 14.082 15.753 13.9514 16.0855 13.7526C16.4179 13.5537 16.7074 13.2907 16.9371 12.9788C17.1668 12.6668 17.332 12.3123 17.4232 11.9358C17.5144 11.5593 17.5296 11.1684 17.4681 10.786C17.4065 10.4035 17.2694 10.0372 17.0647 9.70829C16.8601 9.37941 16.5919 9.0946 16.276 8.87047C15.96 8.64635 15.6026 8.48741 15.2246 8.40292C14.8465 8.31844 14.4554 8.31011 14.0741 8.37842C14.2046 7.77082 14.1976 7.14172 14.0535 6.53721C13.9094 5.93269 13.6319 5.36807 13.2413 4.88469C12.8507 4.40131 12.357 4.01142 11.7962 3.74358C11.2354 3.47573 10.6218 3.33672 10.0004 3.33672C9.37894 3.33672 8.76535 3.47573 8.20458 3.74358C7.64381 4.01142 7.15005 4.40131 6.75948 4.88469C6.3689 5.36807 6.0914 5.93269 5.94729 6.53721C5.80319 7.14172 5.79613 7.77082 5.92664 8.37842C5.16635 8.23564 4.38049 8.40074 3.74193 8.83738C3.10336 9.27403 2.66441 9.94646 2.52164 10.7067C2.37886 11.467 2.54396 12.2529 2.98061 12.8915C3.41726 13.53 4.08969 13.969 4.84997 14.1117L4.99997 14.1367V15.8151C3.92951 15.7187 2.92698 15.2492 2.16758 14.4886C1.40819 13.728 0.940245 12.7247 0.845535 11.6541C0.750824 10.5835 1.03537 9.51365 1.64945 8.63156C2.26352 7.74947 3.16806 7.11124 4.20497 6.82842C4.36973 5.40706 5.05114 4.09584 6.11962 3.14414C7.1881 2.19243 8.5691 1.66663 9.99997 1.66675Z" fill="#1B2230"/>
</svg>
