<svg width="69" height="19" viewBox="0 0 69 19" fill="none" xmlns="http://www.w3.org/2000/svg">
<g opacity="0.65" clip-path="url(#clip0_242_6337)">
<path d="M2.01847 8.11547H5.06656V6.3382H2.01847V2.33418H5.56098V0.520752H0V14.2377H5.61705V12.4243H2.01847V8.11547Z" fill="#1B2230"/>
<path d="M25.7049 12.4811H22.9779V0.520752H20.9595V12.9823C20.9595 13.7883 21.3876 14.2377 22.1828 14.2377H26.4899C27.2901 14.2377 27.7285 13.7883 27.7285 12.9823V0.520752H25.7049V12.4811Z" fill="#1B2230"/>
<path d="M31.4137 0.520752H29.3953V14.2377H31.4137V0.520752Z" fill="#1B2230"/>
<path d="M32.4944 2.33418H34.7116V14.2377H36.7301V2.33418H38.9627V0.520752H32.4944V2.33418Z" fill="#1B2230"/>
<path d="M43.3001 6.48286L41.6894 0.520752H39.5996V0.593083L42.2705 9.19526V14.2377H44.3094V9.19526L46.9854 0.593083V0.520752H44.9108L43.3001 6.48286Z" fill="#1B2230"/>
<path d="M53.2906 0.520752H49.2179C48.4381 0.520752 47.9946 0.970235 47.9946 1.77621V4.82959C47.9946 5.35141 48.1017 5.62006 48.4381 5.92488L52.4954 9.82041V12.5121H50.0131V9.71191H47.9946V12.9823C47.9946 13.7883 48.4381 14.2377 49.2179 14.2377H53.2906C54.0704 14.2377 54.5139 13.7883 54.5139 12.9875V9.71708C54.5139 9.20043 54.4068 8.93177 54.0704 8.60629L50.0131 4.72626V2.24635H52.4954V4.82959H54.5139V1.76071C54.5139 0.970235 54.0704 0.520752 53.2906 0.520752Z" fill="#1B2230"/>
<path d="M58.143 8.11547H61.1911V6.3382H58.143V2.33418H61.6855V0.520752H56.1245V14.2377H61.7416V12.4243H58.143V8.11547Z" fill="#1B2230"/>
<path d="M62.5369 0.520752V2.33418H64.749V14.2377H66.7726V2.33418H69V0.520752H62.5369Z" fill="#1B2230"/>
<path d="M12.9621 4.45239H12.6257V5.23253H12.2893V10.1149H12.6257V10.9622H12.9621V10.1149H13.2985V5.23253H12.9621V4.45239Z" fill="#1B2230"/>
<path d="M14.695 4.8606H14.3586V6.22455H14.0222V7.356H14.3586V8.62179H14.695V7.356H15.0315V6.22455H14.695V4.8606Z" fill="#1B2230"/>
<path d="M19.8278 7.53675C19.8272 6.07369 19.3767 4.64721 18.5387 3.4559C17.7008 2.2646 16.5173 1.36777 15.1529 0.890286C13.7885 0.412798 12.3112 0.378414 10.9266 0.791922C9.54203 1.20543 8.31912 2.04625 7.42814 3.19731C6.53716 4.34837 6.02245 5.75239 5.95567 7.21388C5.8889 8.67537 6.27339 10.1216 7.0556 11.3512C7.83781 12.5808 8.97882 13.5326 10.3198 14.074C11.6607 14.6155 13.1348 14.7196 14.5369 14.372L20.628 18.5L18.4362 11.7629C19.3405 10.5447 19.8289 9.06125 19.8278 7.53675ZM12.9415 12.5482C12.357 12.5492 11.777 12.4442 11.2289 12.2382V11.4013H11.5653V9.60334H11.2289V8.86453H10.8925V9.60334H10.551V11.4013H10.8874V12.0987C10.3473 11.8519 9.85529 11.509 9.43469 11.0861V11.0396H9.7711V8.27555H9.43469V7.48508H9.09828V8.27555H8.76187V10.2543C8.13029 9.27424 7.85328 8.10261 7.97797 6.93883C8.10266 5.77505 8.62135 4.69102 9.44578 3.87121C10.2702 3.05141 11.3494 2.5465 12.4998 2.4424C13.6501 2.33829 14.8005 2.64144 15.7551 3.30024V7.70724H16.0916V8.38922H16.428V7.70724H16.7644V4.2302C17.3768 4.96786 17.7685 5.8675 17.8935 6.82322C18.0185 7.77894 17.8716 8.75097 17.4699 9.62488C17.0683 10.4988 16.4287 11.2382 15.6264 11.7561C14.8242 12.274 13.8927 12.5488 12.9415 12.5482Z" fill="#1B2230"/>
</g>
<defs>
<clipPath id="clip0_242_6337">
<rect width="69" height="18" fill="white" transform="translate(0 0.5)"/>
</clipPath>
</defs>
</svg>
