<svg width="4" height="14" viewBox="0 0 4 14" fill="none" xmlns="http://www.w3.org/2000/svg">
<path d="M2.00002 3.29998C1.39251 3.29998 0.900024 2.80749 0.900024 2.19998C0.900024 1.59246 1.39251 1.09998 2.00002 1.09998C2.60754 1.09998 3.10002 1.59246 3.10002 2.19998C3.10002 2.80749 2.60754 3.29998 2.00002 3.29998ZM2.00002 8.09998C1.39251 8.09998 0.900024 7.60749 0.900024 6.99998C0.900024 6.39246 1.39251 5.89998 2.00002 5.89998C2.60754 5.89998 3.10002 6.39246 3.10002 6.99998C3.10002 7.60749 2.60754 8.09998 2.00002 8.09998ZM2.00002 12.9C1.39251 12.9 0.900024 12.4075 0.900024 11.8C0.900024 11.1925 1.39251 10.7 2.00002 10.7C2.60754 10.7 3.10002 11.1925 3.10002 11.8C3.10002 12.4075 2.60754 12.9 2.00002 12.9Z" fill="#788091" stroke="#788091"/>
</svg>
