<svg width="15" height="17" viewBox="0 0 15 17" fill="none" xmlns="http://www.w3.org/2000/svg">
<path d="M11.2838 12.4875H3.99118V7.30377C3.99118 5.31002 5.61176 3.71502 7.6375 3.71502C9.66324 3.71502 11.2838 5.31002 11.2838 7.30377V12.4875ZM12.9044 11.69V7.30377C12.9044 4.85545 11.1704 2.80587 8.85294 2.26357V1.72127C8.85294 1.40401 8.72489 1.09974 8.49695 0.875398C8.26901 0.651058 7.95986 0.525024 7.6375 0.525024C7.31515 0.525024 7.00599 0.651058 6.77805 0.875398C6.55011 1.09974 6.42206 1.40401 6.42206 1.72127V2.26357C4.09651 2.80587 2.37059 4.85545 2.37059 7.30377V11.69L0.75 13.285V14.0825H14.525V13.285L12.9044 11.69ZM7.6375 16.475C8.06731 16.475 8.47951 16.307 8.78343 16.0079C9.08735 15.7087 9.25809 15.303 9.25809 14.88H6.01691C6.01691 15.303 6.18765 15.7087 6.49157 16.0079C6.79549 16.307 7.20769 16.475 7.6375 16.475Z" fill="#A1AEB7"/>
</svg>
