<svg width="17" height="16" viewBox="0 0 17 16" fill="none" xmlns="http://www.w3.org/2000/svg">
<g clip-path="url(#clip0_68_979)">
<path d="M15.8654 13.9326L15.7771 14.021L14.8337 14.9643L14.7453 15.0527L14.6569 14.9643L11.8807 12.1874C10.8118 13.0125 9.49824 13.4602 8.14582 13.4583M15.8654 13.9326L14.271 7.33325C14.271 7.33319 14.271 7.33313 14.271 7.33307C14.2709 3.95212 11.527 1.20825 8.146 1.20825C4.76496 1.20825 2.021 3.95222 2.021 7.33325C2.021 10.7142 4.76486 13.4582 8.14582 13.4583M15.8654 13.9326L15.777 13.8442L13.0002 11.068L15.8654 13.9326ZM8.14582 13.4583L8.146 13.3333V13.4583C8.14594 13.4583 8.14588 13.4583 8.14582 13.4583ZM12.6877 7.33325V7.33345C12.6895 8.51415 12.23 9.64883 11.407 10.4955C11.4068 10.4957 11.4066 10.4959 11.4064 10.4961L11.3089 10.5936C11.3086 10.5938 11.3084 10.5941 11.3082 10.5943C10.4616 11.4172 9.32689 11.8768 8.14619 11.8749H8.146C5.63638 11.8749 3.60433 9.84223 3.60433 7.33325C3.60433 4.82362 5.63637 2.79159 8.146 2.79159C10.655 2.79159 12.6877 4.82363 12.6877 7.33325Z" fill="#FAFAFC" stroke="#FAFAFC" stroke-width="0.25"/>
</g>
<defs>
<clipPath id="clip0_68_979">
<rect width="16" height="16" fill="white" transform="translate(0.8125)"/>
</clipPath>
</defs>
</svg>
