<svg width="10" height="8" viewBox="0 0 10 8" fill="none" xmlns="http://www.w3.org/2000/svg">
<path d="M9.20741 0.793031C9.39488 0.980558 9.50019 1.23487 9.50019 1.50003C9.50019 1.76519 9.39488 2.0195 9.20741 2.20703L4.20741 7.20703C4.01988 7.3945 3.76557 7.49982 3.50041 7.49982C3.23524 7.49982 2.98094 7.3945 2.79341 7.20703L0.793407 5.20703C0.611249 5.01843 0.510455 4.76583 0.512733 4.50363C0.515012 4.24143 0.62018 3.99062 0.805589 3.80521C0.990997 3.6198 1.24181 3.51463 1.50401 3.51236C1.7662 3.51008 2.0188 3.61087 2.20741 3.79303L3.50041 5.08603L7.79341 0.793031C7.98094 0.60556 8.23524 0.500244 8.50041 0.500244C8.76557 0.500244 9.01988 0.60556 9.20741 0.793031Z" fill="white"/>
</svg>
