<svg width="135" height="40" viewBox="0 0 135 40" fill="none" xmlns="http://www.w3.org/2000/svg">
<path d="M9.43001 39.1279C9.08569 39.1279 8.74969 39.124 8.40807 39.1172C7.70037 39.109 6.99433 39.0545 6.29574 38.9541C5.64433 38.8548 5.0133 38.6701 4.42345 38.4061C3.839 38.1442 3.30594 37.8009 2.84469 37.3892C2.37676 36.9824 1.98718 36.5106 1.6914 35.9924C1.39236 35.4709 1.18541 34.9119 1.07775 34.3349C0.961494 33.7149 0.898592 33.088 0.889592 32.4595C0.882427 32.2486 0.873047 31.5462 0.873047 31.5462V8.44083C0.873047 8.44083 0.883037 7.74927 0.889648 7.5461C0.898266 6.91865 0.960802 6.29269 1.07671 5.67364C1.18457 5.09504 1.39168 4.53442 1.69088 4.01119C1.98557 3.4934 2.37299 3.02121 2.8381 2.61295C3.30269 2.2008 3.83745 1.85571 4.42289 1.59026C5.01139 1.32709 5.64123 1.14369 6.29132 1.04621C6.99221 0.944755 7.7007 0.889904 8.41085 0.882116L9.43056 0.869904H125.57L126.602 0.882606C127.306 0.890007 128.008 0.944369 128.702 1.04523C129.359 1.14394 129.995 1.32862 130.59 1.59319C131.763 2.12815 132.718 2.97451 133.32 4.01363C133.614 4.53325 133.818 5.08929 133.924 5.6629C134.042 6.28703 134.107 6.91791 134.121 7.5505C134.124 7.83376 134.124 8.13802 134.124 8.44083C134.133 8.8159 134.133 9.17291 134.133 9.53284V30.4659C134.133 30.8293 134.133 31.1838 134.124 31.5413C134.124 31.8666 134.124 32.1645 134.12 32.4712C134.107 33.0925 134.042 33.7121 133.927 34.3251C133.821 34.9063 133.615 35.4697 133.316 35.9954C133.018 36.508 132.631 36.9757 132.169 37.3814C131.707 37.7953 131.173 38.1406 130.587 38.4042C129.994 38.6702 129.358 38.8556 128.702 38.9541C128.004 39.055 127.297 39.1096 126.59 39.1172C126.259 39.124 125.912 39.1279 125.576 39.1279L124.35 39.1299L9.43001 39.1279Z" fill="#FAFAFC"/>
<path d="M32.7973 20.3006C32.8081 19.4659 33.0298 18.6475 33.4418 17.9216C33.8538 17.1956 34.4428 16.5857 35.1539 16.1485C34.7021 15.5034 34.1062 14.9724 33.4134 14.5979C32.7205 14.2233 31.9499 14.0155 31.1627 13.9908C29.4835 13.8146 27.8555 14.9957 26.9998 14.9957C26.1275 14.9957 24.81 14.0083 23.3913 14.0375C22.4736 14.0672 21.5793 14.334 20.7954 14.8121C20.0115 15.2901 19.3649 15.9631 18.9184 16.7654C16.9844 20.1138 18.427 25.0349 20.2796 27.7415C21.2065 29.0668 22.2898 30.5473 23.7072 30.4948C25.0943 30.4372 25.6123 29.6103 27.2866 29.6103C28.9454 29.6103 29.4314 30.4948 30.8776 30.4614C32.366 30.4372 33.3038 29.1302 34.1981 27.7923C34.8641 26.8479 35.3766 25.8042 35.7166 24.6997C34.8518 24.334 34.1139 23.7218 33.5948 22.9395C33.0757 22.1572 32.7983 21.2394 32.7973 20.3006Z" fill="#1B2230"/>
<path d="M30.0659 12.2108C30.8774 11.2366 31.2772 9.98439 31.1804 8.72015C29.9406 8.85037 28.7953 9.44293 27.9728 10.3798C27.5707 10.8374 27.2627 11.3699 27.0664 11.9466C26.8702 12.5234 26.7896 13.1332 26.8291 13.7412C27.4493 13.7475 28.0628 13.6131 28.6234 13.348C29.1841 13.083 29.6773 12.6941 30.0659 12.2108Z" fill="#1B2230"/>
<path d="M50.3306 27.1395H45.5972L44.4604 30.496H42.4556L46.939 18.078H49.022L53.5054 30.496H51.4663L50.3306 27.1395ZM46.0874 25.5907H49.8394L47.9898 20.1434H47.938L46.0874 25.5907Z" fill="#1B2230"/>
<path d="M63.188 25.9696C63.188 28.7831 61.6822 30.5907 59.4097 30.5907C58.834 30.6208 58.2615 30.4882 57.7578 30.2081C57.254 29.9279 56.8392 29.5116 56.5611 29.0067H56.5181V33.4911H54.6597V21.4423H56.4585V22.9481H56.4927C56.7837 22.4456 57.2054 22.0315 57.713 21.7496C58.2207 21.4678 58.7952 21.3288 59.3755 21.3475C61.6733 21.3475 63.188 23.1639 63.188 25.9696ZM61.2779 25.9696C61.2779 24.1366 60.3306 22.9315 58.8853 22.9315C57.4654 22.9315 56.5103 24.162 56.5103 25.9696C56.5103 27.7938 57.4654 29.0155 58.8853 29.0155C60.3306 29.0155 61.2779 27.8192 61.2779 25.9696Z" fill="#1B2230"/>
<path d="M73.1529 25.9696C73.1529 28.7831 71.647 30.5907 69.3745 30.5907C68.7989 30.6208 68.2264 30.4882 67.7226 30.2081C67.2188 29.9279 66.8041 29.5116 66.5259 29.0067H66.4829V33.4911H64.6245V21.4422H66.4233V22.9481H66.4575C66.7485 22.4456 67.1702 22.0315 67.6778 21.7496C68.1855 21.4678 68.76 21.3288 69.3403 21.3475C71.6382 21.3475 73.1529 23.1639 73.1529 25.9696ZM71.2427 25.9696C71.2427 24.1366 70.2954 22.9315 68.8501 22.9315C67.4302 22.9315 66.4751 24.162 66.4751 25.9696C66.4751 27.7938 67.4302 29.0155 68.8501 29.0155C70.2954 29.0155 71.2427 27.8192 71.2427 25.9696H71.2427Z" fill="#1B2230"/>
<path d="M79.7388 27.036C79.8765 28.2675 81.0728 29.076 82.7076 29.076C84.274 29.076 85.4009 28.2674 85.4009 27.1571C85.4009 26.1932 84.7212 25.616 83.1118 25.2205L81.5025 24.8328C79.2222 24.2821 78.1636 23.2156 78.1636 21.4852C78.1636 19.3426 80.0308 17.8709 82.6822 17.8709C85.3062 17.8709 87.105 19.3426 87.1656 21.4852H85.2896C85.1773 20.2459 84.1528 19.4979 82.6558 19.4979C81.1587 19.4979 80.1343 20.2547 80.1343 21.3563C80.1343 22.2342 80.7886 22.7508 82.3892 23.1463L83.7573 23.4822C86.3052 24.0848 87.3638 25.1082 87.3638 26.9246C87.3638 29.2478 85.5132 30.7029 82.5698 30.7029C79.8159 30.7029 77.9565 29.282 77.8364 27.0359L79.7388 27.036Z" fill="#1B2230"/>
<path d="M91.3745 19.2997V21.4423H93.0962V22.9139H91.3745V27.9052C91.3745 28.6805 91.7192 29.0419 92.4761 29.0419C92.6805 29.0383 92.8845 29.024 93.0874 28.9989V30.4618C92.7471 30.5253 92.4013 30.5541 92.0552 30.5477C90.2222 30.5477 89.5073 29.8592 89.5073 28.1034V22.9139H88.1909V21.4423H89.5073V19.2997H91.3745Z" fill="#1B2230"/>
<path d="M94.0933 25.9696C94.0933 23.121 95.771 21.3309 98.3872 21.3309C101.012 21.3309 102.682 23.1209 102.682 25.9696C102.682 28.8261 101.021 30.6083 98.3872 30.6083C95.7543 30.6083 94.0933 28.826 94.0933 25.9696ZM100.789 25.9696C100.789 24.0155 99.8931 22.8622 98.3872 22.8622C96.8813 22.8622 95.9868 24.0243 95.9868 25.9696C95.9868 27.9315 96.8813 29.0761 98.3872 29.0761C99.8931 29.0761 100.789 27.9315 100.789 25.9696H100.789Z" fill="#1B2230"/>
<path d="M104.214 21.4423H105.987V22.9833H106.03C106.15 22.502 106.432 22.0766 106.828 21.7788C107.225 21.4809 107.712 21.3286 108.208 21.3475C108.422 21.3468 108.635 21.37 108.844 21.4169V23.1551C108.574 23.0725 108.292 23.0346 108.009 23.0428C107.739 23.0319 107.47 23.0795 107.22 23.1824C106.97 23.2853 106.746 23.441 106.562 23.6389C106.378 23.8368 106.239 24.0721 106.154 24.3288C106.07 24.5855 106.042 24.8574 106.073 25.1258V30.496H104.214L104.214 21.4423Z" fill="#1B2230"/>
<path d="M117.413 27.8368C117.163 29.4803 115.562 30.6083 113.514 30.6083C110.88 30.6083 109.246 28.8436 109.246 26.0126C109.246 23.1727 110.889 21.3309 113.436 21.3309C115.941 21.3309 117.516 23.0516 117.516 25.7968V26.4335H111.122V26.5458C111.092 26.879 111.134 27.2146 111.244 27.5305C111.354 27.8463 111.53 28.1351 111.761 28.3777C111.991 28.6202 112.27 28.811 112.58 28.9373C112.89 29.0636 113.223 29.1225 113.557 29.1102C113.996 29.1514 114.437 29.0497 114.814 28.8202C115.19 28.5908 115.483 28.2459 115.648 27.8368L117.413 27.8368ZM111.13 25.1346H115.657C115.673 24.835 115.628 24.5352 115.523 24.254C115.419 23.9728 115.257 23.7163 115.048 23.5005C114.84 23.2847 114.589 23.1144 114.312 23.0002C114.034 22.886 113.736 22.8303 113.436 22.8368C113.133 22.835 112.833 22.8931 112.553 23.0079C112.273 23.1226 112.019 23.2917 111.804 23.5053C111.59 23.7189 111.42 23.9729 111.304 24.2526C111.189 24.5322 111.13 24.832 111.13 25.1347V25.1346Z" fill="#1B2230"/>
<path d="M45.8545 8.73089C46.2441 8.70293 46.6351 8.76179 46.9992 8.90323C47.3633 9.04466 47.6915 9.26514 47.9601 9.54876C48.2286 9.83239 48.4309 10.1721 48.5523 10.5434C48.6737 10.9146 48.7112 11.3082 48.6621 11.6957C48.6621 13.602 47.6318 14.6977 45.8545 14.6977H43.6992V8.73089H45.8545ZM44.626 13.8539H45.751C46.0294 13.8705 46.308 13.8249 46.5665 13.7203C46.8251 13.6157 47.057 13.4547 47.2455 13.2491C47.434 13.0436 47.5743 12.7986 47.6562 12.532C47.738 12.2653 47.7594 11.9838 47.7187 11.7079C47.7564 11.4331 47.7329 11.1533 47.6498 10.8886C47.5667 10.624 47.426 10.381 47.238 10.177C47.0499 9.9731 46.8191 9.81329 46.562 9.70905C46.3049 9.60481 46.028 9.55873 45.751 9.5741H44.626V13.8539Z" fill="#1B2230"/>
<path d="M49.7088 12.4442C49.6805 12.1483 49.7143 11.8497 49.8082 11.5677C49.902 11.2856 50.0538 11.0263 50.2537 10.8063C50.4536 10.5863 50.6974 10.4105 50.9692 10.2903C51.2411 10.17 51.535 10.1078 51.8323 10.1078C52.1296 10.1078 52.4236 10.17 52.6954 10.2903C52.9673 10.4105 53.211 10.5863 53.4109 10.8063C53.6109 11.0263 53.7626 11.2856 53.8565 11.5677C53.9503 11.8497 53.9842 12.1483 53.9558 12.4442C53.9847 12.7404 53.9512 13.0394 53.8577 13.322C53.7641 13.6045 53.6124 13.8643 53.4124 14.0847C53.2124 14.3051 52.9685 14.4813 52.6964 14.6018C52.4243 14.7223 52.1299 14.7846 51.8323 14.7846C51.5347 14.7846 51.2404 14.7223 50.9682 14.6018C50.6961 14.4813 50.4522 14.3051 50.2522 14.0847C50.0522 13.8643 49.9006 13.6045 49.807 13.322C49.7134 13.0394 49.6799 12.7404 49.7088 12.4442ZM53.0418 12.4442C53.0418 11.4682 52.6033 10.8974 51.8338 10.8974C51.0613 10.8974 50.6268 11.4682 50.6268 12.4442C50.6268 13.4281 51.0613 13.9945 51.8338 13.9945C52.6033 13.9945 53.0418 13.4242 53.0418 12.4442H53.0418Z" fill="#1B2230"/>
<path d="M59.6016 14.6976H58.6797L57.749 11.3812H57.6787L56.752 14.6976H55.8389L54.5977 10.1947H55.499L56.3057 13.6307H56.3721L57.2979 10.1947H58.1504L59.0762 13.6307H59.1465L59.9492 10.1947H60.8379L59.6016 14.6976Z" fill="#1B2230"/>
<path d="M61.8818 10.1947H62.7373V10.91H62.8037C62.9164 10.6531 63.1064 10.4378 63.3472 10.2939C63.5881 10.1501 63.8679 10.0851 64.1475 10.1078C64.3666 10.0913 64.5866 10.1244 64.7912 10.2045C64.9958 10.2846 65.1797 10.4097 65.3294 10.5705C65.4791 10.7313 65.5907 10.9238 65.6559 11.1336C65.7211 11.3434 65.7382 11.5652 65.7061 11.7826V14.6976H64.8174V12.0058C64.8174 11.2821 64.5029 10.9223 63.8457 10.9223C63.6969 10.9153 63.5484 10.9406 63.4104 10.9965C63.2723 11.0523 63.148 11.1373 63.0459 11.2457C62.9437 11.3541 62.8663 11.4833 62.8187 11.6244C62.7712 11.7655 62.7547 11.9153 62.7705 12.0634V14.6976H61.8818L61.8818 10.1947Z" fill="#1B2230"/>
<path d="M67.1221 8.43689H68.0107V14.6976H67.1221V8.43689Z" fill="#1B2230"/>
<path d="M69.2459 12.4442C69.2176 12.1483 69.2514 11.8497 69.3453 11.5676C69.4392 11.2855 69.591 11.0262 69.7909 10.8062C69.9909 10.5862 70.2346 10.4104 70.5065 10.2902C70.7783 10.1699 71.0724 10.1078 71.3696 10.1078C71.6669 10.1078 71.9609 10.1699 72.2328 10.2902C72.5047 10.4104 72.7484 10.5862 72.9484 10.8062C73.1483 11.0262 73.3001 11.2855 73.394 11.5676C73.4878 11.8497 73.5217 12.1483 73.4934 12.4442C73.5222 12.7405 73.4888 13.0394 73.3951 13.322C73.3015 13.6045 73.1498 13.8643 72.9498 14.0847C72.7498 14.3051 72.5059 14.4812 72.2337 14.6018C71.9616 14.7223 71.6673 14.7846 71.3696 14.7846C71.072 14.7846 70.7777 14.7223 70.5055 14.6018C70.2334 14.4812 69.9895 14.3051 69.7895 14.0847C69.5895 13.8643 69.4378 13.6045 69.3442 13.322C69.2505 13.0394 69.2171 12.7405 69.2459 12.4442ZM72.5789 12.4442C72.5789 11.4681 72.1404 10.8974 71.3709 10.8974C70.5984 10.8974 70.1639 11.4682 70.1639 12.4442C70.1639 13.4281 70.5984 13.9945 71.3709 13.9945C72.1404 13.9945 72.5789 13.4242 72.5789 12.4442H72.5789Z" fill="#1B2230"/>
<path d="M74.4292 13.4242C74.4292 12.6137 75.0327 12.1464 76.104 12.08L77.3237 12.0097V11.621C77.3237 11.1454 77.0093 10.8769 76.4019 10.8769C75.9058 10.8769 75.562 11.059 75.4634 11.3773H74.603C74.6938 10.6039 75.4214 10.1078 76.4429 10.1078C77.5718 10.1078 78.2085 10.6698 78.2085 11.621V14.6977H77.353V14.0648H77.2827C77.14 14.2918 76.9396 14.4769 76.702 14.6011C76.4643 14.7253 76.198 14.7842 75.9302 14.7718C75.7411 14.7915 75.5501 14.7713 75.3693 14.7126C75.1886 14.6539 75.0221 14.558 74.8807 14.4311C74.7393 14.3041 74.626 14.1489 74.5483 13.9755C74.4705 13.8021 74.4299 13.6143 74.4292 13.4242ZM77.3237 13.0394V12.663L76.2241 12.7333C75.604 12.7748 75.3227 12.9857 75.3227 13.3827C75.3227 13.788 75.6743 14.0238 76.1577 14.0238C76.2994 14.0382 76.4425 14.0239 76.5785 13.9818C76.7145 13.9397 76.8406 13.8707 76.9494 13.7788C77.0582 13.687 77.1474 13.5742 77.2117 13.4472C77.276 13.3201 77.3141 13.1815 77.3237 13.0394Z" fill="#1B2230"/>
<path d="M79.3765 12.4442C79.3765 11.0214 80.1079 10.12 81.2456 10.12C81.527 10.107 81.8063 10.1744 82.0508 10.3143C82.2954 10.4542 82.495 10.6608 82.6265 10.91H82.6929V8.43689H83.5815V14.6976H82.73V13.9862H82.6597C82.5181 14.2337 82.3115 14.4377 82.0622 14.5762C81.813 14.7147 81.5306 14.7823 81.2456 14.7718C80.1001 14.7719 79.3765 13.8705 79.3765 12.4442ZM80.2945 12.4442C80.2945 13.3993 80.7447 13.974 81.4976 13.974C82.2466 13.974 82.7095 13.391 82.7095 12.4481C82.7095 11.5097 82.2417 10.9183 81.4976 10.9183C80.7495 10.9183 80.2944 11.497 80.2944 12.4442H80.2945Z" fill="#1B2230"/>
<path d="M87.2581 12.4442C87.2298 12.1483 87.2636 11.8497 87.3575 11.5677C87.4513 11.2856 87.6031 11.0263 87.803 10.8063C88.003 10.5863 88.2467 10.4105 88.5185 10.2903C88.7904 10.17 89.0844 10.1078 89.3816 10.1078C89.6789 10.1078 89.9729 10.17 90.2447 10.2903C90.5166 10.4105 90.7603 10.5863 90.9602 10.8063C91.1602 11.0263 91.3119 11.2856 91.4058 11.5677C91.4996 11.8497 91.5335 12.1483 91.5052 12.4442C91.534 12.7404 91.5006 13.0394 91.407 13.322C91.3134 13.6045 91.1617 13.8643 90.9617 14.0847C90.7617 14.3051 90.5178 14.4813 90.2457 14.6018C89.9736 14.7223 89.6793 14.7846 89.3816 14.7846C89.084 14.7846 88.7897 14.7223 88.5175 14.6018C88.2454 14.4813 88.0015 14.3051 87.8015 14.0847C87.6015 13.8643 87.4499 13.6045 87.3563 13.322C87.2627 13.0394 87.2292 12.7404 87.2581 12.4442ZM90.5911 12.4442C90.5911 11.4682 90.1526 10.8974 89.3831 10.8974C88.6106 10.8974 88.1761 11.4682 88.1761 12.4442C88.1761 13.4281 88.6107 13.9945 89.3831 13.9945C90.1526 13.9945 90.5911 13.4242 90.5911 12.4442Z" fill="#1B2230"/>
<path d="M92.6978 10.1947H93.5532V10.91H93.6196C93.7323 10.6531 93.9223 10.4378 94.1632 10.2939C94.404 10.1501 94.6838 10.0851 94.9634 10.1078C95.1825 10.0913 95.4025 10.1244 95.6071 10.2045C95.8117 10.2846 95.9956 10.4097 96.1453 10.5705C96.295 10.7313 96.4066 10.9238 96.4718 11.1336C96.537 11.3434 96.5541 11.5652 96.522 11.7826V14.6976H95.6333V12.0058C95.6333 11.2821 95.3189 10.9223 94.6616 10.9223C94.5129 10.9153 94.3644 10.9406 94.2263 10.9965C94.0883 11.0523 93.9639 11.1373 93.8618 11.2457C93.7597 11.3541 93.6822 11.4833 93.6346 11.6244C93.5871 11.7655 93.5707 11.9153 93.5864 12.0634V14.6976H92.6978V10.1947Z" fill="#1B2230"/>
<path d="M101.543 9.07361V10.2152H102.519V10.9637H101.543V13.2792C101.543 13.7509 101.738 13.9574 102.18 13.9574C102.293 13.957 102.407 13.9502 102.519 13.9369V14.6771C102.359 14.7057 102.198 14.7209 102.036 14.7225C101.047 14.7225 100.654 14.3749 100.654 13.5067V10.9637H99.939V10.2152H100.654V9.07361H101.543Z" fill="#1B2230"/>
<path d="M103.733 8.43689H104.614V10.9183H104.684C104.802 10.659 104.997 10.4424 105.243 10.2981C105.489 10.1537 105.773 10.0886 106.057 10.1117C106.275 10.0998 106.493 10.1362 106.695 10.2183C106.897 10.3003 107.079 10.426 107.227 10.5863C107.375 10.7467 107.486 10.9377 107.552 11.1458C107.618 11.354 107.637 11.5741 107.608 11.7904V14.6976H106.718V12.0096C106.718 11.2904 106.383 10.9261 105.755 10.9261C105.603 10.9136 105.449 10.9346 105.305 10.9877C105.161 11.0407 105.031 11.1245 104.923 11.2333C104.815 11.342 104.732 11.473 104.68 11.6172C104.628 11.7613 104.608 11.9151 104.622 12.0677V14.6976H103.733L103.733 8.43689Z" fill="#1B2230"/>
<path d="M112.79 13.4818C112.669 13.8934 112.407 14.2493 112.051 14.4875C111.694 14.7256 111.265 14.8308 110.839 14.7846C110.542 14.7924 110.247 14.7356 109.975 14.618C109.702 14.5005 109.458 14.3251 109.26 14.1039C109.063 13.8828 108.915 13.6213 108.828 13.3374C108.742 13.0536 108.718 12.7543 108.758 12.4603C108.719 12.1655 108.743 11.8655 108.83 11.5809C108.916 11.2962 109.063 11.0334 109.26 10.8103C109.457 10.5873 109.699 10.4091 109.971 10.2879C110.243 10.1667 110.537 10.1053 110.835 10.1078C112.088 10.1078 112.843 10.9638 112.843 12.3778V12.6879H109.664V12.7377C109.65 12.9029 109.671 13.0693 109.725 13.226C109.779 13.3828 109.865 13.5265 109.978 13.6479C110.091 13.7694 110.228 13.8659 110.38 13.9313C110.533 13.9967 110.697 14.0295 110.863 14.0277C111.076 14.0532 111.291 14.0149 111.482 13.9177C111.672 13.8205 111.83 13.6688 111.934 13.4818L112.79 13.4818ZM109.664 12.0307H111.938C111.949 11.8795 111.929 11.7277 111.878 11.585C111.827 11.4423 111.747 11.3118 111.642 11.202C111.538 11.0921 111.412 11.0053 111.272 10.9471C111.132 10.8889 110.981 10.8607 110.83 10.8642C110.676 10.8622 110.523 10.8911 110.381 10.949C110.239 11.007 110.109 11.0928 110.001 11.2015C109.892 11.3103 109.806 11.4396 109.748 11.582C109.691 11.7244 109.662 11.877 109.664 12.0307H109.664Z" fill="#1B2230"/>
</svg>
