<svg width="135" height="40" viewBox="0 0 135 40" fill="none" xmlns="http://www.w3.org/2000/svg">
<path d="M130 -0.00012207H5C2.23858 -0.00012207 0 2.23845 0 4.99988V34.9999C0 37.7613 2.23858 39.9999 5 39.9999H130C132.761 39.9999 135 37.7613 135 34.9999V4.99988C135 2.23845 132.761 -0.00012207 130 -0.00012207Z" fill="#FAFAFC"/>
<path d="M47.4183 10.2432C47.4365 10.6101 47.3798 10.9769 47.2516 11.3213C47.1235 11.6656 46.9267 11.9802 46.6731 12.2461C46.3889 12.5408 46.0456 12.7723 45.6658 12.9252C45.286 13.0782 44.8782 13.1493 44.469 13.1338C44.0572 13.1375 43.6488 13.0588 43.2679 12.9024C42.8869 12.746 42.5411 12.515 42.2507 12.2231C41.9603 11.9311 41.7312 11.5841 41.5768 11.2023C41.4225 10.8205 41.346 10.4117 41.3519 9.99997C41.346 9.58821 41.4225 9.17942 41.5769 8.79764C41.7313 8.41586 41.9604 8.06878 42.2508 7.77679C42.5412 7.48479 42.887 7.25378 43.2679 7.09732C43.6488 6.94085 44.0572 6.8621 44.469 6.86567C44.8924 6.86439 45.3115 6.94999 45.7005 7.11717C46.0617 7.26361 46.3833 7.49332 46.639 7.78757L46.1116 8.31537C45.9106 8.07882 45.658 7.89161 45.3732 7.76818C45.0884 7.64474 44.779 7.58839 44.469 7.60347C44.1569 7.60186 43.8477 7.66324 43.5599 7.78395C43.2721 7.90467 43.0116 8.08222 42.7941 8.30598C42.5765 8.52974 42.4064 8.7951 42.2938 9.08618C42.1812 9.37726 42.1286 9.68806 42.139 9.99997C42.1315 10.4672 42.263 10.9261 42.5167 11.3184C42.7704 11.7108 43.1349 12.019 43.564 12.204C43.9931 12.3889 44.4674 12.4423 44.9269 12.3573C45.3864 12.2723 45.8102 12.0528 46.1448 11.7266C46.4527 11.3948 46.6311 10.9635 46.6477 10.5112H44.469V9.79047H47.3763C47.4038 9.93981 47.4178 10.0913 47.4183 10.2432Z" fill="#1B2230" stroke="#1B2230" stroke-width="0.2" stroke-miterlimit="10"/>
<path d="M52.0278 7.73728H49.2954V9.63958H51.7593V10.3604H49.2954V12.2627H52.0278V13H48.5249V6.99998H52.0278V7.73728Z" fill="#1B2230" stroke="#1B2230" stroke-width="0.2" stroke-miterlimit="10"/>
<path d="M55.2788 13H54.5073V7.73728H52.8315V6.99998H56.9546V7.73728H55.2788V13Z" fill="#1B2230" stroke="#1B2230" stroke-width="0.2" stroke-miterlimit="10"/>
<path d="M59.938 13V6.99998H60.7085V13H59.938Z" fill="#1B2230" stroke="#1B2230" stroke-width="0.2" stroke-miterlimit="10"/>
<path d="M64.1284 13H63.3569V7.73728H61.6812V6.99998H65.8042V7.73728H64.1284V13Z" fill="#1B2230" stroke="#1B2230" stroke-width="0.2" stroke-miterlimit="10"/>
<path d="M73.6092 12.2246C73.0252 12.8068 72.2341 13.1338 71.4095 13.1338C70.5848 13.1338 69.7938 12.8068 69.2098 12.2246C68.9209 11.9319 68.6937 11.5842 68.5419 11.202C68.3901 10.8199 68.3167 10.4111 68.326 9.99998C68.3167 9.58886 68.3901 9.18007 68.5419 8.7979C68.6937 8.41574 68.9209 8.068 69.2098 7.77538C69.4984 7.48664 69.8412 7.25767 70.2185 7.10158C70.5957 6.94548 71.0001 6.86532 71.4083 6.86568C71.8166 6.86604 72.2208 6.94692 72.5978 7.10369C72.9748 7.26045 73.3171 7.49003 73.6053 7.77928C73.8944 8.07113 74.122 8.41809 74.2744 8.79956C74.4269 9.18103 74.5013 9.58924 74.493 9.99998C74.5021 10.4111 74.4285 10.8198 74.2767 11.2019C74.1249 11.584 73.8979 11.9318 73.6092 12.2246ZM69.7791 11.7222C70.2116 12.154 70.7978 12.3965 71.409 12.3965C72.0202 12.3965 72.6064 12.154 73.0389 11.7222C73.2607 11.4951 73.4341 11.2254 73.5488 10.9294C73.6634 10.6334 73.7169 10.3172 73.7059 9.99998C73.7169 9.68274 73.6634 9.36656 73.5488 9.07056C73.4341 8.77455 73.2607 8.50486 73.0389 8.27778C72.6064 7.84598 72.0202 7.60347 71.409 7.60347C70.7978 7.60347 70.2116 7.84598 69.7791 8.27778C69.5576 8.50504 69.3844 8.77478 69.2699 9.07076C69.1555 9.36674 69.1021 9.68283 69.1131 9.99998C69.1021 10.3171 69.1555 10.6332 69.2699 10.9292C69.3844 11.2252 69.5576 11.4949 69.7791 11.7222Z" fill="#1B2230" stroke="#1B2230" stroke-width="0.2" stroke-miterlimit="10"/>
<path d="M75.5752 13V6.99998H76.5137L79.4297 11.6675H79.4629L79.4297 10.5112V6.99998H80.2012V13H79.3965L76.3457 8.10638H76.3125L76.3457 9.26268V13H75.5752Z" fill="#1B2230" stroke="#1B2230" stroke-width="0.2" stroke-miterlimit="10"/>
<path d="M68.1359 21.7516C67.2954 21.7548 66.4746 22.0069 65.7773 22.4762C65.08 22.9455 64.5374 23.6109 64.2179 24.3883C63.8985 25.1657 63.8166 26.0204 63.9825 26.8444C64.1484 27.6684 64.5548 28.4247 65.1503 29.0179C65.7457 29.6111 66.5036 30.0146 67.3282 30.1774C68.1528 30.3402 69.0071 30.255 69.7834 29.9326C70.5596 29.6102 71.2229 29.0651 71.6895 28.366C72.1561 27.6669 72.4052 26.8452 72.4052 26.0047C72.4134 25.4425 72.3085 24.8844 72.0967 24.3636C71.8849 23.8428 71.5704 23.3699 71.1721 22.9731C70.7738 22.5763 70.2997 22.2637 69.7781 22.0538C69.2565 21.844 68.698 21.7412 68.1359 21.7516ZM68.1359 28.5824C67.6182 28.6193 67.1015 28.4995 66.6529 28.2386C66.2043 27.9777 65.8447 27.5878 65.6208 27.1197C65.3969 26.6515 65.3191 26.1268 65.3976 25.6138C65.4761 25.1009 65.7072 24.6234 66.0609 24.2436C66.4145 23.8639 66.8743 23.5994 67.3804 23.4846C67.8865 23.3698 68.4154 23.41 68.8983 23.6C69.3812 23.79 69.7957 24.121 70.0879 24.5499C70.38 24.9788 70.5363 25.4857 70.5363 26.0047C70.552 26.3325 70.5019 26.6602 70.3891 26.9684C70.2763 27.2766 70.1029 27.5591 69.8792 27.7993C69.6555 28.0395 69.3861 28.2325 69.0867 28.367C68.7873 28.5015 68.464 28.5747 68.1359 28.5824ZM58.8225 21.7516C57.982 21.7547 57.1612 22.0069 56.4639 22.4762C55.7666 22.9454 55.2239 23.6108 54.9045 24.3882C54.585 25.1657 54.5031 26.0203 54.669 26.8443C54.8349 27.6683 55.2413 28.4246 55.8367 29.0179C56.4322 29.6111 57.1901 30.0146 58.0147 30.1774C58.8393 30.3402 59.6936 30.255 60.4698 29.9326C61.2461 29.6102 61.9094 29.0651 62.376 28.366C62.8426 27.6669 63.0917 26.8452 63.0917 26.0047C63.0999 25.4425 62.995 24.8844 62.7832 24.3636C62.5714 23.8428 62.257 23.37 61.8586 22.9731C61.4603 22.5763 60.9863 22.2637 60.4647 22.0539C59.9431 21.844 59.3846 21.7412 58.8225 21.7516ZM58.8225 28.5824C58.3048 28.6193 57.7881 28.4995 57.3395 28.2386C56.8909 27.9777 56.5313 27.5878 56.3074 27.1197C56.0835 26.6515 56.0057 26.1268 56.0842 25.6138C56.1627 25.1009 56.3938 24.6234 56.7475 24.2436C57.1011 23.8639 57.5609 23.5994 58.067 23.4846C58.5731 23.3698 59.102 23.41 59.5849 23.6C60.0678 23.79 60.4823 24.121 60.7745 24.5499C61.0666 24.9788 61.2229 25.4857 61.2229 26.0047C61.2386 26.3325 61.1886 26.6602 61.0757 26.9684C60.9629 27.2766 60.7895 27.5591 60.5658 27.7993C60.3422 28.0395 60.0727 28.2326 59.7733 28.367C59.4739 28.5015 59.1506 28.5747 58.8225 28.5824ZM47.7437 23.0566V24.8609H52.0614C51.9991 25.7072 51.6528 26.5076 51.0786 27.1325C50.6459 27.5735 50.1256 27.9189 49.5511 28.1465C48.9767 28.374 48.361 28.4786 47.7437 28.4535C46.4816 28.4364 45.2771 27.9231 44.3907 27.0246C43.5043 26.1261 43.0073 24.9147 43.0073 23.6526C43.0073 22.3904 43.5043 21.1791 44.3907 20.2806C45.2771 19.3821 46.4816 18.8688 47.7437 18.8517C48.9559 18.8358 50.1254 19.299 50.9981 20.1405L52.2708 18.8678C51.6753 18.2783 50.9682 17.8136 50.1908 17.501C49.4134 17.1884 48.5814 17.0341 47.7437 17.0473C46.8682 17.0345 45.9988 17.196 45.1863 17.5222C44.3737 17.8484 43.6341 18.3329 43.0105 18.9476C42.3868 19.5622 41.8916 20.2947 41.5536 21.1024C41.2156 21.9101 41.0415 22.777 41.0415 23.6526C41.0415 24.5282 41.2156 25.3951 41.5536 26.2028C41.8916 27.0105 42.3868 27.743 43.0105 28.3576C43.6341 28.9722 44.3737 29.4567 45.1863 29.783C45.9988 30.1092 46.8682 30.2706 47.7437 30.2579C48.5991 30.2934 49.4524 30.1465 50.2467 29.8271C51.0411 29.5077 51.7585 29.023 52.3513 28.4052C53.4037 27.2564 53.9646 25.7414 53.9141 24.1843C53.9182 23.8061 53.8858 23.4285 53.8173 23.0566H47.7437ZM93.052 24.4581C92.7964 23.6877 92.3098 23.0147 91.6584 22.5305C91.007 22.0463 90.2223 21.7743 89.411 21.7516C88.8645 21.755 88.3244 21.8691 87.8233 22.0872C87.3222 22.3052 86.8705 22.6226 86.4956 23.0202C86.1206 23.4177 85.8302 23.8871 85.6418 24.4001C85.4534 24.9131 85.371 25.459 85.3996 26.0047C85.3873 26.5639 85.4878 27.1198 85.6951 27.6393C85.9025 28.1587 86.2124 28.6311 86.6064 29.0281C87.0004 29.4251 87.4703 29.7386 87.9882 29.9499C88.5061 30.1612 89.0612 30.2659 89.6205 30.2579C90.3211 30.2618 91.0118 30.0916 91.6304 29.7626C92.249 29.4336 92.7762 28.9561 93.1647 28.373L91.7148 27.4064C91.4976 27.7671 91.1903 28.0652 90.8231 28.2714C90.456 28.4775 90.0415 28.5847 89.6205 28.5824C89.1872 28.599 88.7589 28.4849 88.3912 28.2551C88.0234 28.0253 87.7333 27.6903 87.5583 27.2936L93.2454 24.9415L93.052 24.4581ZM87.2523 25.8759C87.2322 25.5663 87.2742 25.2559 87.3755 24.9627C87.4769 24.6696 87.6358 24.3996 87.8428 24.1685C88.0498 23.9375 88.3008 23.7501 88.5812 23.6173C88.8615 23.4844 89.1655 23.4088 89.4754 23.3949C89.7981 23.3737 90.1198 23.4479 90.4006 23.6083C90.6814 23.7688 90.9087 24.0083 91.0543 24.2971L87.2523 25.8759ZM82.6285 30.0001H84.4973V17.4985H82.6285V30.0001ZM79.5675 22.7021H79.5031C79.2189 22.3934 78.8722 22.1489 78.486 21.985C78.0998 21.8211 77.6831 21.7415 77.2637 21.7516C76.167 21.7983 75.1307 22.2668 74.3712 23.0593C73.6117 23.8518 73.1877 24.907 73.1877 26.0047C73.1877 27.1024 73.6117 28.1577 74.3712 28.9502C75.1307 29.7427 76.167 30.2112 77.2637 30.2579C77.6847 30.2691 78.1032 30.1884 78.4899 30.0215C78.8767 29.8546 79.2224 29.6054 79.5031 29.2913H79.5675V29.9035C79.5675 31.5307 78.6976 32.4006 77.2959 32.4006C76.8287 32.3894 76.3755 32.2394 75.9939 31.9697C75.6124 31.7 75.3197 31.3228 75.1533 30.8862L73.5261 31.5629C73.8328 32.3096 74.3554 32.9476 75.027 33.3954C75.6987 33.8432 76.4887 34.0802 77.2959 34.0761C79.487 34.0761 81.3397 32.7873 81.3397 29.6457V22.0093H79.5675V22.7021ZM77.4249 28.5824C76.7789 28.5276 76.1771 28.2323 75.7385 27.755C75.2999 27.2776 75.0565 26.653 75.0565 26.0047C75.0565 25.3565 75.2999 24.7319 75.7385 24.2545C76.1771 23.7771 76.7789 23.4819 77.4249 23.4271C77.7462 23.4428 78.0611 23.523 78.3508 23.663C78.6405 23.803 78.899 23.9999 79.111 24.2419C79.323 24.4839 79.4841 24.7662 79.5846 25.0718C79.6852 25.3774 79.7232 25.7002 79.6964 26.0208C79.7215 26.3394 79.6821 26.6598 79.5805 26.9629C79.479 27.2659 79.3173 27.5454 79.1053 27.7845C78.8932 28.0237 78.6351 28.2176 78.3464 28.3547C78.0576 28.4918 77.7442 28.5692 77.4249 28.5824ZM101.806 17.4987H97.3347V30.0001H99.2004V25.2637H101.806C102.334 25.2926 102.862 25.2136 103.358 25.0316C103.854 24.8496 104.308 24.5683 104.692 24.2049C105.076 23.8415 105.381 23.4037 105.59 22.9182C105.799 22.4327 105.907 21.9097 105.907 21.3812C105.907 20.8526 105.799 20.3296 105.59 19.8441C105.381 19.3586 105.076 18.9208 104.692 18.5575C104.308 18.1941 103.854 17.9128 103.358 17.7308C102.862 17.5487 102.334 17.4698 101.806 17.4987ZM101.854 23.5239H99.2004V19.2386H101.854C102.139 19.2327 102.423 19.2837 102.688 19.3888C102.953 19.4938 103.194 19.6507 103.398 19.8502C103.602 20.0498 103.764 20.288 103.874 20.5509C103.985 20.8138 104.042 21.0961 104.042 21.3812C104.042 21.6664 103.985 21.9487 103.874 22.2116C103.764 22.4745 103.602 22.7127 103.398 22.9123C103.194 23.1118 102.953 23.2687 102.688 23.3737C102.423 23.4787 102.139 23.5298 101.854 23.5239ZM113.386 21.7286C112.705 21.6888 112.027 21.8487 111.436 22.1887C110.844 22.5287 110.365 23.034 110.056 23.6425L111.713 24.3341C111.877 24.0321 112.126 23.7845 112.429 23.6216C112.732 23.4588 113.075 23.3878 113.418 23.4173C113.891 23.3711 114.364 23.5144 114.731 23.8159C115.099 24.1174 115.332 24.5524 115.38 25.0256V25.1543C114.781 24.836 114.112 24.6702 113.434 24.6718C111.649 24.6718 109.831 25.6529 109.831 27.4864C109.849 27.8728 109.944 28.2518 110.11 28.6009C110.277 28.9499 110.512 29.262 110.801 29.5185C111.091 29.775 111.429 29.9707 111.795 30.0941C112.162 30.2174 112.55 30.2659 112.935 30.2366C113.405 30.2642 113.874 30.1654 114.292 29.9505C114.711 29.7355 115.064 29.4122 115.316 29.0143H115.38V29.9793H117.181V25.1865C117.181 22.967 115.525 21.7286 113.386 21.7286ZM113.161 28.58C112.549 28.58 111.697 28.2745 111.697 27.5185C111.697 26.5536 112.758 26.1836 113.675 26.1836C114.271 26.1677 114.86 26.3122 115.38 26.6018C115.312 27.144 115.049 27.6431 114.641 28.0068C114.233 28.3704 113.707 28.574 113.161 28.58ZM123.743 22.002L121.604 27.422H121.54L119.32 22.002H117.31L120.639 29.5772L118.741 33.791H120.687L125.818 22.002H123.743ZM106.936 30.0001H108.802V17.4987H106.936V30.0001Z" fill="#1B2230"/>
<path d="M10.4352 7.53798C10.1073 7.93005 9.9417 8.43268 9.97238 8.94288V31.059C9.94161 31.5692 10.1072 32.0718 10.4352 32.4639L10.5092 32.536L22.8982 20.1471V19.8548L10.5092 7.46538L10.4352 7.53798Z" fill="url(#paint0_linear_68_1760)"/>
<path d="M27.0278 24.2785L22.8984 20.1471V19.8548L27.0288 15.7244L27.1219 15.7775L32.0147 18.5576C33.4123 19.3516 33.4123 20.6508 32.0147 21.4453L27.1219 24.2254L27.0278 24.2785Z" fill="url(#paint1_linear_68_1760)"/>
<path d="M27.1216 24.2249L22.8981 20.001L10.4351 32.4639C10.7198 32.715 11.0835 32.8587 11.463 32.8699C11.8426 32.8811 12.2141 32.7592 12.5132 32.5253L27.1216 24.2249Z" fill="url(#paint2_linear_68_1760)"/>
<path d="M27.1216 15.777L12.5132 7.47658C12.2141 7.24267 11.8426 7.12077 11.463 7.13198C11.0835 7.1432 10.7198 7.28682 10.4351 7.53798L22.8981 20.001L27.1216 15.777Z" fill="url(#paint3_linear_68_1760)"/>
<path opacity="0.2" d="M27.0285 24.1319L12.5132 32.3792C12.2256 32.5981 11.8746 32.7176 11.5131 32.7195C11.1517 32.7214 10.7995 32.6057 10.5096 32.3899L10.4351 32.4644L10.5091 32.5365L10.5096 32.536C10.7994 32.7519 11.1517 32.8677 11.5131 32.8658C11.8746 32.8638 12.2256 32.7443 12.5132 32.5253L27.1216 24.2249L27.0285 24.1319Z" fill="#FAFAFC"/>
<path opacity="0.12" d="M10.4352 32.3183C10.1073 31.9262 9.94171 31.4236 9.97236 30.9134V31.0595C9.94169 31.5697 10.1073 32.0723 10.4352 32.4644L10.5097 32.3899L10.4352 32.3183Z" fill="#FAFAFC"/>
<path opacity="0.12" d="M32.0147 21.2987L27.0288 24.1319L27.1219 24.2249L32.0147 21.4448C32.3025 21.3199 32.5516 21.1201 32.736 20.8662C32.9203 20.6124 33.0333 20.3137 33.063 20.0014C33.0011 20.2842 32.8742 20.5487 32.6922 20.7739C32.5102 20.9991 32.2783 21.1788 32.0147 21.2987Z" fill="#FAFAFC"/>
<path opacity="0.25" d="M12.5136 7.62318L32.0148 18.7032C32.2784 18.823 32.5105 19.0027 32.6925 19.228C32.8744 19.4533 33.0013 19.718 33.0631 20.001C33.0335 19.6885 32.9207 19.3897 32.7363 19.1357C32.5519 18.8818 32.3027 18.6819 32.0148 18.5571L12.5136 7.47708C11.116 6.68298 9.97266 7.34257 9.97266 8.94337V9.08948C9.97266 7.48878 11.116 6.82918 12.5136 7.62318Z" fill="#1B2230"/>
<defs>
<linearGradient id="paint0_linear_68_1760" x1="21.7995" y1="8.70969" x2="5.01711" y2="25.4921" gradientUnits="userSpaceOnUse">
<stop stop-color="#00A0FF"/>
<stop offset="0.00657" stop-color="#00A1FF"/>
<stop offset="0.2601" stop-color="#00BEFF"/>
<stop offset="0.5122" stop-color="#00D2FF"/>
<stop offset="0.7604" stop-color="#00DFFF"/>
<stop offset="1" stop-color="#00E3FF"/>
</linearGradient>
<linearGradient id="paint1_linear_68_1760" x1="33.8344" y1="20.0014" x2="9.63752" y2="20.0014" gradientUnits="userSpaceOnUse">
<stop stop-color="#FFE000"/>
<stop offset="0.4087" stop-color="#FFBD00"/>
<stop offset="0.7754" stop-color="#FFA500"/>
<stop offset="1" stop-color="#FF9C00"/>
</linearGradient>
<linearGradient id="paint2_linear_68_1760" x1="24.8266" y1="22.2961" x2="2.06833" y2="45.0544" gradientUnits="userSpaceOnUse">
<stop stop-color="#FF3A44"/>
<stop offset="1" stop-color="#C31162"/>
</linearGradient>
<linearGradient id="paint3_linear_68_1760" x1="7.29699" y1="0.176161" x2="17.4595" y2="10.3387" gradientUnits="userSpaceOnUse">
<stop stop-color="#32A071"/>
<stop offset="0.0685" stop-color="#2DA771"/>
<stop offset="0.4762" stop-color="#15CF74"/>
<stop offset="0.8009" stop-color="#06E775"/>
<stop offset="1" stop-color="#00F076"/>
</linearGradient>
</defs>
</svg>
